<svg xmlns="http://www.w3.org/2000/svg" viewBox="0 0 120 140" fill="none">
  <defs>
    <linearGradient id="g" x1="10" y1="8" x2="110" y2="120" gradientUnits="userSpaceOnUse">
      <stop stop-color="#F0D78C"/>
      <stop offset="0.5" stop-color="#C9A227"/>
      <stop offset="1" stop-color="#8B6914"/>
    </linearGradient>
  </defs>
  <rect x="10" y="28" width="18" height="100" rx="2" fill="url(#g)"/>
  <rect x="32" y="8" width="18" height="120" rx="2" fill="url(#g)"/>
  <path fill="url(#g)" d="M54 8h42c22 0 38 13 38 36 0 15-8 26-22 32 18 6 30 18 30 38 0 26-20 42-48 42H54V8zm30 24v38h16c11 0 18-6 18-15s-7-15-18-15H84zm0 58v42h20c14 0 22-7 22-19s-9-23-24-23H84z"/>
  <path fill="#0E0E0E" d="M70 52h20l12 11v22h-10V72H80v13H70V52z"/>
</svg>
